<svg xmlns="http://www.w3.org/2000/svg" viewBox="0 0 1920 1080" preserveAspectRatio="xMidYMid slice">
  <defs>
    <radialGradient id="bg" cx="62%" cy="46%" r="60%">
      <stop offset="0%" stop-color="#1a4a3a"/>
      <stop offset="40%" stop-color="#0d2a22"/>
      <stop offset="100%" stop-color="#040a08"/>
    </radialGradient>
    <radialGradient id="glow" cx="62%" cy="48%" r="32%">
      <stop offset="0%" stop-color="#18c98a" stop-opacity="0.55"/>
      <stop offset="60%" stop-color="#18c98a" stop-opacity="0.12"/>
      <stop offset="100%" stop-color="#18c98a" stop-opacity="0"/>
    </radialGradient>
    <linearGradient id="wing" x1="0%" y1="0%" x2="100%" y2="100%">
      <stop offset="0%" stop-color="#5fe7b2"/>
      <stop offset="55%" stop-color="#18c98a"/>
      <stop offset="100%" stop-color="#0e8a5f"/>
    </linearGradient>
    <linearGradient id="mountains" x1="0%" y1="0%" x2="0%" y2="100%">
      <stop offset="0%" stop-color="#143a2b" stop-opacity="0.7"/>
      <stop offset="100%" stop-color="#040a08" stop-opacity="1"/>
    </linearGradient>
  </defs>
  <rect width="1920" height="1080" fill="url(#bg)"/>
  <!-- Andes silhouette -->
  <path d="M0,720 L160,520 L300,640 L460,500 L620,640 L780,460 L940,640 L1100,500 L1260,650 L1420,520 L1580,640 L1740,540 L1920,640 L1920,1080 L0,1080 Z"
        fill="url(#mountains)"/>
  <!-- Glow halo -->
  <ellipse cx="1190" cy="520" rx="650" ry="450" fill="url(#glow)"/>
  <!-- Sparkles -->
  <g fill="#ffe9a8" opacity="0.7">
    <circle cx="320" cy="200" r="2"/><circle cx="500" cy="380" r="1.5"/>
    <circle cx="700" cy="170" r="2"/><circle cx="1500" cy="220" r="2.5"/>
    <circle cx="1700" cy="380" r="1.5"/><circle cx="1820" cy="180" r="2"/>
    <circle cx="240" cy="500" r="1.5"/><circle cx="1320" cy="800" r="2"/>
    <circle cx="1600" cy="780" r="1.5"/><circle cx="180" cy="780" r="2"/>
  </g>
  <!-- Butterfly silhouette -->
  <g transform="translate(1190, 520) scale(7)">
    <ellipse cx="0" cy="0" rx="2.5" ry="22" fill="#0d4a30"/>
    <path d="M-2 -10 Q-40 -32 -70 -18 Q-82 -2 -64 14 Q-32 22 -2 8 Z" fill="url(#wing)" opacity="0.92"/>
    <path d="M2 -10 Q40 -32 70 -18 Q82 -2 64 14 Q32 22 2 8 Z" fill="url(#wing)" opacity="0.92"/>
    <path d="M-2 12 Q-30 22 -38 42 Q-30 56 -12 48 Q-2 36 -2 22 Z" fill="url(#wing)" opacity="0.82"/>
    <path d="M2 12 Q30 22 38 42 Q30 56 12 48 Q2 36 2 22 Z" fill="url(#wing)" opacity="0.82"/>
    <circle cx="-32" cy="-8" r="3" fill="#ffe9a8" opacity="0.7"/>
    <circle cx="32" cy="-8" r="3" fill="#ffe9a8" opacity="0.7"/>
  </g>
</svg>
